<svg id="圖層_1" data-name="圖層 1" xmlns="http://www.w3.org/2000/svg" viewBox="0 0 96 96"><defs><style>.cls-1,.cls-2,.cls-3,.cls-4,.cls-5,.cls-6,.cls-7,.cls-8{fill:none;stroke-linecap:round;stroke-linejoin:round;}.cls-1,.cls-2,.cls-3{stroke:#00b2d2;}.cls-1{stroke-width:10px;opacity:0.2;}.cls-2{stroke-width:9px;opacity:0.25;}.cls-3,.cls-5{stroke-width:5px;}.cls-3{opacity:0.3;}.cls-4{stroke:#00b4d3;stroke-width:7px;}.cls-5{stroke:#42bcd7;}.cls-6{stroke:#39bbd7;stroke-width:4px;}.cls-7{stroke:#72c8e0;stroke-width:3px;}.cls-8{stroke:#a2d8e8;}</style></defs><title>logo</title><polygon class="cls-1" points="71.99 21 66.91 21 49.9 55.55 32.77 21 27.68 21 20.23 74 30.68 74 34.29 47.34 47.51 74 52.3 74 65.34 47.61 68.94 74 79.52 74 71.99 21"/><polygon class="cls-2" points="71.99 21.5 66.91 21.5 49.9 56.05 32.77 21.5 27.68 21.5 20.23 74.5 30.68 74.5 34.29 47.84 47.51 74.5 52.3 74.5 65.34 48.11 68.94 74.5 79.52 74.5 71.99 21.5"/><polygon class="cls-3" points="71.99 21.5 66.91 21.5 49.9 56.05 32.77 21.5 27.68 21.5 20.23 74.5 30.68 74.5 34.29 47.84 47.51 74.5 52.3 74.5 65.34 48.11 68.94 74.5 79.52 74.5 71.99 21.5"/><polygon class="cls-4" points="71.99 21.5 66.91 21.5 49.9 56.05 32.77 21.5 27.68 21.5 20.23 74.5 30.68 74.5 34.29 47.84 47.51 74.5 52.3 74.5 65.34 48.11 68.94 74.5 79.52 74.5 71.99 21.5"/><polygon class="cls-5" points="71.99 21.5 66.91 21.5 49.9 56.05 32.77 21.5 27.68 21.5 20.23 74.5 30.68 74.5 34.29 47.84 47.51 74.5 52.3 74.5 65.34 48.11 68.94 74.5 79.52 74.5 71.99 21.5"/><polygon class="cls-6" points="71.99 21 66.91 21 49.9 55.55 32.77 21 27.68 21 20.23 74 30.68 74 34.29 47.34 47.51 74 52.3 74 65.34 47.61 68.94 74 79.52 74 71.99 21"/><polygon class="cls-7" points="71.99 21.5 66.91 21.5 49.9 56.05 32.77 21.5 27.68 21.5 20.23 74.5 30.68 74.5 34.29 47.84 47.51 74.5 52.3 74.5 65.34 48.11 68.94 74.5 79.52 74.5 71.99 21.5"/><polygon class="cls-8" points="71.99 21.5 66.91 21.5 49.9 56.05 32.77 21.5 27.68 21.5 20.23 74.5 30.68 74.5 34.29 47.84 47.51 74.5 52.3 74.5 65.34 48.11 68.94 74.5 79.52 74.5 71.99 21.5"/></svg>